<?xml version="1.0" standalone="no"?>
<svg viewBox="0 0 200 200" xmlns="http://www.w3.org/2000/svg">
  <path fill="#FF0066" d="M30.2,-54.4C42.3,-45.4,57.3,-43.6,68.3,-35.7C79.2,-27.9,86.1,-13.9,81.9,-2.4C77.8,9.1,62.6,18.3,51.4,25.7C40.2,33,32.9,38.7,25,45.8C17,52.9,8.5,61.5,-3.8,68C-16,74.4,-32,78.8,-45.4,74.9C-58.8,71,-69.6,58.7,-71.1,44.8C-72.7,30.9,-65,15.5,-65.7,-0.4C-66.3,-16.2,-75.2,-32.4,-70.4,-40.5C-65.5,-48.7,-46.9,-48.8,-32.9,-56.8C-18.9,-64.7,-9.4,-80.5,-0.2,-80.2C9.1,-79.8,18.1,-63.5,30.2,-54.4Z" transform="translate(100 100)" />
</svg>
